<svg width="40" height="40" viewBox="0 0 40 40" fill="none" xmlns="http://www.w3.org/2000/svg">
<path d="M20.0007 3.33325C10.8007 3.33325 3.33398 10.7999 3.33398 19.9999C3.33398 29.1999 10.8007 36.6666 20.0007 36.6666C29.2007 36.6666 36.6673 29.1999 36.6673 19.9999C36.6673 10.7999 29.2007 3.33325 20.0007 3.33325ZM20.0007 33.3333C12.6507 33.3333 6.66732 27.3499 6.66732 19.9999C6.66732 12.6499 12.6507 6.66659 20.0007 6.66659C27.3507 6.66659 33.334 12.6499 33.334 19.9999C33.334 27.3499 27.3507 33.3333 20.0007 33.3333ZM25.0007 10.8333V14.9999H18.334V18.3333H25.0007V22.4999L30.834 16.6666L25.0007 10.8333ZM15.0007 17.4999L9.16732 23.3333L15.0007 29.1666V24.9999H21.6673V21.6666H15.0007V17.4999Z" fill="#5AFF19"/>
</svg>
