<svg width="15" height="15" viewBox="0 0 15 15" fill="none" xmlns="http://www.w3.org/2000/svg">
<path d="M12.5731 3.6882C12.5224 3.62083 12.4681 3.55616 12.4106 3.49445C12.4685 3.34035 12.5124 3.18138 12.5419 3.01945C12.6289 2.42707 12.5533 1.82217 12.3231 1.26945C12.3231 1.26945 11.6231 1.0507 10.0169 2.13195C9.33495 1.94366 8.63057 1.84904 7.92313 1.8507C7.21366 1.84945 6.50727 1.94406 5.82313 2.13195C4.21688 1.0382 3.51688 1.26945 3.51688 1.26945C3.28943 1.81631 3.21385 2.41444 3.29813 3.0007C3.32779 3.16936 3.37384 3.33473 3.43563 3.49445C3.37938 3.55695 3.32313 3.6257 3.27313 3.6882C2.80675 4.27321 2.55917 5.00266 2.57313 5.7507C2.57165 5.92811 2.57999 6.10546 2.59813 6.28195C2.79813 9.0507 4.64188 9.69445 6.39813 9.89445C6.14956 10.1256 5.981 10.4299 5.91688 10.7632C5.85879 10.9855 5.83145 11.2147 5.83563 11.4444V12.2632C5.13626 12.3257 4.41876 12.2238 4.19626 11.6001C3.95741 11.0031 3.5613 10.4819 3.05001 10.0919C3.01264 10.0717 2.97709 10.0483 2.94376 10.0219C2.89886 9.90395 2.81931 9.8023 2.71557 9.73035C2.61183 9.6584 2.48875 9.61952 2.36251 9.61882H2.35938C2.19416 9.61882 2.03566 9.68424 1.91854 9.80077C1.80142 9.91731 1.73521 10.0755 1.73438 10.2407C1.73251 10.7482 2.24063 11.0763 2.44876 11.1876C2.69191 11.4326 2.88751 11.7206 3.02563 12.0369C3.25313 12.6763 3.91876 13.6482 5.81688 13.5219L5.81813 13.5832L5.82063 13.7507C5.82063 13.9165 5.88648 14.0754 6.00369 14.1926C6.1209 14.3098 6.27987 14.3757 6.44563 14.3757H9.39188C9.55764 14.3757 9.71661 14.3098 9.83382 14.1926C9.95103 14.0754 10.0169 13.9165 10.0169 13.7507C10.0169 13.7507 10.0219 11.7757 10.0219 11.4444C10.026 11.2147 9.99871 10.9855 9.94063 10.7632L9.93938 10.7594L9.94188 10.7632C9.93626 10.7413 9.92813 10.7238 9.92188 10.7026C9.85224 10.3929 9.6911 10.1113 9.45938 9.89445L9.46688 9.90757L9.45438 9.89507C11.2106 9.69507 13.0419 9.03882 13.2419 6.28257C13.26 6.10609 13.2684 5.92873 13.2669 5.75132C13.278 5.00477 13.0331 4.27629 12.5731 3.6882Z" fill="white"/>
</svg>
