<svg width="40" height="40" viewBox="0 0 40 40" fill="none" xmlns="http://www.w3.org/2000/svg">
<path d="M25.0007 26.6665H30.0007C30.9173 26.6665 31.6673 25.9165 31.6673 24.9998V14.9998C31.6673 14.0832 30.9173 13.3332 30.0007 13.3332H25.0007C24.084 13.3332 23.334 14.0832 23.334 14.9998V24.9998C23.334 25.9165 24.084 26.6665 25.0007 26.6665ZM26.6673 16.6665H28.334V23.3332H26.6673V16.6665ZM15.0007 26.6665H20.0007C20.9173 26.6665 21.6673 25.9165 21.6673 24.9998V14.9998C21.6673 14.0832 20.9173 13.3332 20.0007 13.3332H15.0007C14.084 13.3332 13.334 14.0832 13.334 14.9998V24.9998C13.334 25.9165 14.084 26.6665 15.0007 26.6665ZM16.6673 16.6665H18.334V23.3332H16.6673V16.6665ZM8.33398 13.3332H11.6673V26.6665H8.33398V13.3332ZM3.33398 6.6665V33.3332H36.6673V6.6665H3.33398ZM33.334 29.9998H6.66732V9.99984H33.334V29.9998Z" fill="#5AFF19"/>
</svg>
