<svg width="40" height="40" viewBox="0 0 40 40" fill="none" xmlns="http://www.w3.org/2000/svg">
<path d="M23.3327 18.3335C23.3327 16.5002 21.8327 15.0002 19.9993 15.0002C18.166 15.0002 16.666 16.5002 16.666 18.3335C16.666 20.1668 18.166 21.6668 19.9993 21.6668C21.8327 21.6668 23.3327 20.1668 23.3327 18.3335ZM13.2993 30.4168C12.816 28.9168 12.3493 27.1835 12.0327 25.4168L9.99935 26.7835V31.7502L13.2993 30.4168ZM19.9993 3.3335C19.9993 3.3335 28.3327 6.66683 28.3327 21.6668L31.8493 24.0168C32.7827 24.6335 33.3327 25.6835 33.3327 26.7835V36.6668L24.9993 33.3335H14.9993L6.66602 36.6668V26.7835C6.66602 25.6668 7.21602 24.6335 8.14935 24.0168L11.666 21.6668C11.666 6.66683 19.9993 3.3335 19.9993 3.3335ZM19.9993 7.26683C19.9993 7.26683 14.9993 10.6335 14.9993 21.6668C14.9993 25.4168 16.666 30.0002 16.666 30.0002H23.3327C23.3327 30.0002 24.9993 25.4168 24.9993 21.6668C24.9993 10.6335 19.9993 7.26683 19.9993 7.26683ZM29.9993 31.7502V26.7835L27.966 25.4335C27.6493 27.1835 27.1827 28.9335 26.6993 30.4335L29.9993 31.7502Z" fill="#5AFF19"/>
</svg>
